# xmcd
#
# Track frame offsets: 
#        150
#        5407
#        21910
#        36769
#        54551
#        71293
#        86672
#        104002
#        122606
#        137685
#        155242
#        172648
#        187139
#
# Disc length: 2690 seconds
#
# Revision: 0
# Processed by: cddbd v1.5.2PL0 Copyright (c) Steve Scherf et al.
# Submitted via: ExactAudioCopyFreeDBPlugin 1.0
#
DISCID=ab0a800d
DTITLE=K.C. Harmony and Kim Gun Mo - Soul Groove
DYEAR=2008
DGENRE=Soul
TTITLE0=Intro (떠나지마)
TTITLE1=언제쯤
TTITLE2=Kiss
TTITLE3=사랑해 (Fall in love)
TTITLE4=하루
TTITLE5=어설픈 변명
TTITLE6=이별이 준 선물
TTITLE7=너를 위해서
TTITLE8=그러지마
TTITLE9=아파
TTITLE10=잘 될꺼야
TTITLE11=슬픈 휴식
TTITLE12=Kiss (2008 Trend Re-Mix)
EXTD=
EXTT0=
EXTT1=
EXTT2=
EXTT3=
EXTT4=
EXTT5=
EXTT6=
EXTT7=
EXTT8=
EXTT9=
EXTT10=
EXTT11=
EXTT12=
PLAYORDER=
